<svg width="52" height="66" viewBox="0 0 52 66" fill="none" xmlns="http://www.w3.org/2000/svg">
<path d="M25.8304 0C18.9822 0.00807896 12.4169 2.73208 7.57449 7.57446C2.7321 12.4168 0.00810644 18.9822 2.74809e-05 25.8304C-0.00817458 31.4267 1.81985 36.8712 5.20367 41.3286C5.20367 41.3286 5.90813 42.2561 6.0232 42.39L25.8304 65.75L45.647 42.3782C45.7503 42.2538 46.4571 41.3286 46.4571 41.3286L46.4594 41.3215C49.8416 36.8661 51.6688 31.4241 51.6607 25.8304C51.6527 18.9822 48.9287 12.4168 44.0863 7.57446C39.2439 2.73208 32.6785 0.00807896 25.8304 0ZM25.8304 35.2232C23.9727 35.2232 22.1566 34.6723 20.612 33.6402C19.0673 32.6081 17.8634 31.1412 17.1525 29.4249C16.4416 27.7085 16.2556 25.8199 16.618 23.9979C16.9804 22.1759 17.875 20.5022 19.1886 19.1886C20.5022 17.875 22.1759 16.9804 23.9979 16.618C25.82 16.2556 27.7086 16.4416 29.4249 17.1525C31.1412 17.8634 32.6082 19.0673 33.6403 20.612C34.6724 22.1566 35.2232 23.9726 35.2232 25.8304C35.2201 28.3205 34.2295 30.7078 32.4687 32.4687C30.7079 34.2295 28.3206 35.2201 25.8304 35.2232Z" fill="#71B097"/>
</svg>
