<svg width="193" height="157" viewBox="0 0 193 157" fill="none" xmlns="http://www.w3.org/2000/svg">
<g clip-path="url(#clip0_152_2)">
<path d="M82.5946 82.3446H79.7995C78.1225 82.3446 77.0044 82.3446 76.1659 82.4844C75.3274 82.6242 74.9081 82.764 74.9081 83.0436C74.9081 83.3232 75.3274 83.6029 76.3057 83.6029C76.7249 83.6029 77.1442 83.6029 77.2839 83.6029C77.4237 83.6029 78.1225 83.7427 78.961 83.7427C79.52 83.7427 79.7995 83.8825 79.9393 84.0223C80.2188 84.1621 80.3585 84.4417 80.3585 84.8611C80.3585 86.8183 79.6598 88.2164 78.402 89.195C77.0044 90.1736 74.6286 90.5931 71.4143 90.5931C69.1782 90.5931 67.3614 90.1736 66.1036 89.4746C64.7061 88.6358 64.0073 87.5174 64.0073 85.9795C64.0073 84.7213 64.2868 83.4631 64.9856 82.065C65.2651 81.5058 65.8241 80.5272 66.9422 78.8495L67.5012 79.1291C67.0819 79.8281 66.6626 80.5272 66.3831 81.0864C65.8241 82.2048 65.5446 83.1834 65.5446 83.8825C65.5446 85.1407 66.2434 86.1193 67.5012 86.8183C68.759 87.5174 70.5758 87.797 72.8118 87.797C74.3491 87.797 75.6069 87.6572 76.7249 87.5174C78.1225 87.2378 78.8212 86.8183 78.8212 86.3989C78.8212 86.2591 78.6815 86.1193 78.5417 85.9795C78.402 85.8397 78.1225 85.8397 77.7032 85.8397C77.4237 85.8397 77.0044 85.8397 76.4454 85.6999C75.8864 85.6999 75.4671 85.6999 75.3274 85.6999C74.6286 85.6999 74.2094 85.5601 73.9298 85.4203C73.6503 85.2805 73.5106 85.0009 73.5106 84.5815C73.5106 83.3232 73.9298 82.2048 74.6286 81.366C75.1876 80.667 76.1659 80.2476 77.1442 79.8281C77.9827 79.5485 78.8212 79.4087 79.6598 79.4087H82.4548V82.3446H82.5946ZM72.9516 92.4105L71.554 93.8085L69.7372 92.6901L71.1348 91.1523L72.9516 92.4105ZM76.1659 92.4105L74.7684 93.8085L72.9516 92.6901L74.3491 91.1523L76.1659 92.4105Z" fill="white"/>
<path d="M89.3027 82.3446H81.6162V79.5485H87.7654L85.9486 66.2672L85.1101 65.8477C85.1101 65.1487 85.1101 64.4497 85.2498 63.7507C85.3896 63.0517 85.5293 62.4924 85.8088 61.9332L86.0883 62.073C86.0883 62.6323 86.3678 63.1915 87.0666 63.4711C87.6256 63.7507 88.1846 63.8905 88.6039 64.0303C88.6039 64.5895 88.6039 65.1487 88.4641 65.7079C88.3244 66.2672 88.3244 66.6866 88.1846 67.106L87.4859 66.8264L89.3027 79.1291V82.3446Z" fill="white"/>
<path d="M97.1288 82.3446H88.1846V79.5486H96.0108C96.0108 78.2903 95.871 77.3117 95.5915 76.7525C95.4518 76.3331 94.8928 75.634 94.0542 74.7952L95.312 72.2787C96.0108 73.2574 96.5698 73.9564 96.7095 74.5156C96.989 75.3544 97.1288 76.6127 97.1288 78.5699V82.3446ZM93.4952 86.8184L92.2374 89.195L89.7219 87.9368L90.8399 85.6999L93.4952 86.8184ZM97.1288 85.4203L95.871 87.6572L93.3555 86.2592L94.4735 84.0223L97.1288 85.4203Z" fill="white"/>
<path d="M117.812 82.3446H110.126V79.5485H116.275L114.458 66.2672L113.62 65.8477C113.62 65.1487 113.62 64.4497 113.76 63.7507C113.899 63.0517 114.039 62.4924 114.319 61.9332L114.598 62.073C114.598 62.6323 114.878 63.1915 115.576 63.4711C116.135 63.7507 116.694 63.8905 117.114 64.0303C117.114 64.5895 117.114 65.1487 116.974 65.7079C116.834 66.2672 116.834 66.6866 116.694 67.106L115.996 66.9662L117.812 79.2689V82.3446Z" fill="white"/>
<path d="M128.573 82.3446H121.586C121.027 82.3446 120.468 82.2048 119.909 81.7854C119.489 81.5058 119.21 81.0864 119.21 80.5272C119.21 80.1077 119.21 79.8281 119.21 79.4087C119.21 79.1291 119.35 78.7097 119.489 78.2903H119.909C120.048 78.7097 120.188 78.9893 120.468 79.2689C120.747 79.4087 121.027 79.5485 121.446 79.5485H127.455C127.455 77.7311 127.176 76.1932 126.617 75.0748C125.918 73.6768 124.94 72.6981 123.403 72.2787L123.682 69.203C125.499 70.0419 126.757 71.5797 127.595 73.3972C128.154 74.935 128.573 77.0321 128.573 79.5485V82.3446Z" fill="white"/>
<path d="M110.126 79.5486H96.8496V82.3446H110.126V79.5486Z" fill="white"/>
<path d="M170.779 53.545H22.0811V55.0828H170.779V53.545Z" fill="white"/>
<path d="M170.779 101.917H22.0811V103.455H170.779V101.917Z" fill="white"/>
<path d="M146.881 103.735L144.925 105.692L123.822 126.802H119.35L143.108 103.036H140.313L116.555 126.802H76.4452L52.6871 103.036H49.892L73.6501 126.802H69.178L48.0752 105.832L45.2801 103.036H40.9478V133.932H73.5104L96.43 157L119.35 134.072H151.912V103.036H147.58L146.881 103.735ZM144.785 108.628V126.942H126.617L144.785 108.628ZM48.0752 108.628L66.3829 126.942H48.0752V108.628ZM96.43 154.204L76.3055 133.932H80.7776L96.43 149.73L112.082 134.072H116.555L96.43 154.204ZM83.5727 133.932H109.427L96.5698 146.794L83.5727 133.932ZM149.956 131.975H43.0441V103.455L46.2584 106.671V128.899H146.881V106.531L150.095 103.315V131.975H149.956ZM119.489 22.9279L96.43 0L73.5104 22.9279H40.9478V53.8246H45.2801L48.0752 51.0285L69.178 29.9181H73.6501L49.892 53.6848H52.6871L76.4452 29.9181H116.555L140.313 53.6848H143.108L119.35 29.9181H123.822L142.549 48.9314L147.58 53.9644H151.912V22.9279H119.489ZM96.43 2.79608L116.555 22.9279H112.082L96.43 7.26981L80.7776 22.9279H76.3055L96.43 2.79608ZM109.427 22.9279H83.5727L96.43 10.0659L109.427 22.9279ZM48.0752 48.3722V30.0579H66.3829L48.0752 48.3722ZM144.785 48.3722L126.617 30.0579H144.925V48.3722H144.785ZM149.956 53.545L146.741 50.3295V28.1006H46.1186V50.3295L42.9043 53.545V25.0249H149.816V53.545H149.956Z" fill="white"/>
<path d="M189.366 69.902C188.528 64.8691 184.335 61.6536 184.335 61.6536V57.7391H8.66473V61.5138C8.66473 61.5138 4.47212 64.7293 3.6336 69.7622C2.79508 74.7952 0 78.4301 0 78.4301C0 78.4301 2.79508 81.9252 3.6336 86.9581C4.47212 91.9911 8.66473 95.2066 8.66473 95.2066V98.0027H184.475V95.2066C184.475 95.2066 188.668 91.9911 189.506 86.9581C190.345 81.9252 193.14 78.4301 193.14 78.4301C193.14 78.4301 190.205 74.7952 189.366 69.902ZM187.55 86.6785C186.851 90.8726 183.217 93.8085 183.217 93.8085L182.518 94.3677V95.2066V96.1852H10.4815V95.2066V94.3677L9.78277 93.8085C9.78277 93.8085 6.14917 90.8726 5.4504 86.6785C4.89138 82.9038 3.21434 79.9679 2.23606 78.4301C3.21434 76.8922 4.89138 73.9564 5.4504 70.1816C6.14917 65.9875 9.78277 63.0516 9.78277 63.0516L10.4815 62.4924V61.5138V59.4167H182.658V61.5138V62.3526L183.357 62.9118C183.357 62.9118 186.991 65.8477 187.689 70.0418C188.248 73.8165 189.925 76.7524 190.904 78.2903C189.786 79.9679 188.109 82.9038 187.55 86.6785Z" fill="white"/>
</g>
<defs>
<clipPath id="clip0_152_2">
<rect width="193" height="157" fill="white"/>
</clipPath>
</defs>
</svg>
